<svg width="25" height="25" viewBox="0 0 45 45" fill="none" xmlns="http://www.w3.org/2000/svg">
  <g id="logo-apple">
    <path id="Vector" d="M30.6852 12.0288C27.1415 12.0288 25.6438 13.7198 23.1758 13.7198C20.6455 13.7198 18.7154 12.0411 15.6445 12.0411C12.6386 12.0411 9.43325 13.8763 7.39771 17.0025C4.5395 21.4111 5.02466 29.7142 9.65386 36.7876C11.3097 39.3197 13.521 42.1595 16.4214 42.1902H16.4742C18.9949 42.1902 19.7437 40.5396 23.2127 40.5203H23.2655C26.6827 40.5203 27.3682 42.1806 29.8784 42.1806H29.9311C32.8315 42.1498 35.1615 39.0033 36.8173 36.4809C38.0091 34.6668 38.4521 33.7563 39.3662 31.704C32.6698 29.1622 31.594 19.6691 38.2166 16.0296C36.1951 13.4983 33.3544 12.0323 30.6764 12.0323L30.6852 12.0288Z" fill="#efefef"/>
    <path id="Vector_2" d="M29.9048 2.8125C27.7955 2.95576 25.3345 4.29873 23.8931 6.05215C22.5853 7.64121 21.5095 9.99844 21.9314 12.2845H22.1002C24.3466 12.2845 26.6459 10.9318 27.9888 9.19863C29.2826 7.54893 30.2634 5.21104 29.9048 2.8125Z" fill="#efefef"/>
  </g>
</svg>
