<svg width="25" height="25" viewBox="0 0 42 42" fill="none" xmlns="http://www.w3.org/2000/svg">
  <g id="logo-android">
    <path id="Vector" d="M31.2465 16.3244L34.7304 10.2894C34.8238 10.1274 34.8493 9.93499 34.8013 9.75425C34.7534 9.57351 34.6359 9.41908 34.4745 9.32468C34.3947 9.27787 34.3065 9.24736 34.2149 9.23489C34.1232 9.22243 34.0301 9.22827 33.9407 9.25208C33.8514 9.27588 33.7676 9.31718 33.6944 9.37357C33.6211 9.42997 33.5597 9.50034 33.5139 9.58062L29.9865 15.6936C27.2934 14.4631 24.2624 13.7782 21.0025 13.7782C17.7425 13.7782 14.7115 14.4639 12.0184 15.6936L8.49105 9.58062C8.39707 9.41875 8.24263 9.30085 8.06172 9.25285C7.8808 9.20486 7.68823 9.23069 7.52637 9.32468C7.3645 9.41866 7.2466 9.5731 7.19861 9.75402C7.15061 9.93493 7.17644 10.1275 7.27043 10.2894L10.7461 16.3244C4.74141 19.5761 0.671836 25.6571 0 32.7758H42C41.3282 25.6571 37.2586 19.5761 31.2465 16.3244ZM11.3572 26.8777C11.0091 26.8777 10.6687 26.7745 10.3792 26.581C10.0897 26.3876 9.86408 26.1127 9.73084 25.791C9.5976 25.4693 9.56274 25.1154 9.63066 24.7739C9.69859 24.4324 9.86625 24.1187 10.1124 23.8726C10.3586 23.6264 10.6723 23.4587 11.0138 23.3908C11.3553 23.3228 11.7092 23.3577 12.0309 23.4909C12.3526 23.6242 12.6275 23.8498 12.8209 24.1393C13.0144 24.4288 13.1176 24.7692 13.1176 25.1173C13.1174 25.5842 12.9319 26.0318 12.6018 26.3619C12.2717 26.692 11.824 26.8775 11.3572 26.8777ZM30.6346 26.8777C30.2867 26.8763 29.9471 26.7718 29.6586 26.5775C29.37 26.3831 29.1456 26.1077 29.0135 25.7859C28.8813 25.4641 28.8475 25.1104 28.9163 24.7694C28.9851 24.4284 29.1533 24.1154 29.3998 23.87C29.6463 23.6245 29.9599 23.4576 30.3012 23.3902C30.6425 23.3229 30.9961 23.3582 31.3173 23.4917C31.6386 23.6251 31.9131 23.8508 32.1062 24.1401C32.2993 24.4294 32.4023 24.7695 32.4023 25.1173C32.4022 25.3488 32.3565 25.578 32.2677 25.7918C32.179 26.0056 32.0489 26.1998 31.885 26.3633C31.7212 26.5268 31.5267 26.6564 31.3127 26.7447C31.0986 26.8329 30.8693 26.8782 30.6379 26.8777H30.6346Z" fill="#efefef"/>
  </g>
</svg>
